<svg width="11" height="7" viewBox="0 0 11 7" fill="none" xmlns="http://www.w3.org/2000/svg">
<path fill-rule="evenodd" clip-rule="evenodd" d="M0.219359 0.238726C0.359984 0.0982753 0.550608 0.0193854 0.749359 0.0193854C0.948109 0.0193855 1.13873 0.0982753 1.27936 0.238726L5.24936 4.20873L9.21936 0.238727C9.28802 0.16504 9.37082 0.105937 9.46282 0.0649451C9.55482 0.0239534 9.65413 0.00191109 9.75484 0.000134401C9.85554 -0.00164229 9.95557 0.0168824 10.049 0.0546035C10.1423 0.0923247 10.2272 0.148469 10.2984 0.219688C10.3696 0.290907 10.4258 0.375741 10.4635 0.469129C10.5012 0.562517 10.5197 0.662546 10.518 0.763248C10.5162 0.863951 10.4941 0.963265 10.4531 1.05526C10.4121 1.14726 10.353 1.23006 10.2794 1.29873L5.77936 5.79873C5.63873 5.93918 5.44811 6.01807 5.24936 6.01807C5.05061 6.01807 4.85998 5.93918 4.71936 5.79873L0.219359 1.29873C0.0789084 1.1581 1.85613e-05 0.967476 1.85787e-05 0.768725C1.85961e-05 0.569975 0.0789085 0.379351 0.219359 0.238726Z" fill="white"/>
</svg>
