<svg width="11" height="7" viewBox="0 0 11 7" fill="none" xmlns="http://www.w3.org/2000/svg">
<path fill-rule="evenodd" clip-rule="evenodd" d="M10.7806 5.78121C10.6399 5.92171 10.4493 6.00063 10.2505 6.00063C10.0517 6.00063 9.86105 5.92171 9.7204 5.78121L5.74967 1.80993L1.77893 5.78121C1.71025 5.85492 1.62744 5.91405 1.53542 5.95505C1.44341 5.99606 1.34407 6.01811 1.24335 6.01988C1.14263 6.02166 1.04258 6.00313 0.949178 5.9654C0.855773 5.92766 0.770923 5.8715 0.699691 5.80026C0.628459 5.72902 0.572304 5.64416 0.534576 5.55074C0.496848 5.45732 0.47832 5.35726 0.480097 5.25652C0.481874 5.15579 0.50392 5.05644 0.54492 4.96441C0.585919 4.87238 0.645032 4.78955 0.718733 4.72087L5.21957 0.219412C5.36022 0.0789155 5.55088 5.80927e-07 5.74967 6.037e-07C5.94845 6.26474e-07 6.13911 0.0789156 6.27976 0.219412L10.7806 4.72087C10.9211 4.86154 11 5.05223 11 5.25104C11 5.44986 10.9211 5.64054 10.7806 5.78121Z" fill="#967745"/>
</svg>
