<svg width="15" height="15" viewBox="0 0 15 15" fill="none" xmlns="http://www.w3.org/2000/svg">
<path d="M10.5124 1.43073C11.5778 2.04583 12.4625 2.93054 13.0776 3.99593C13.6927 5.06132 14.0165 6.26986 14.0165 7.50007C14.0165 8.73027 13.6927 9.9388 13.0776 11.0042C12.4625 12.0696 11.5777 12.9543 10.5123 13.5694C9.44692 14.1845 8.23837 14.5083 7.00816 14.5082C5.77794 14.5082 4.56941 14.1844 3.50402 13.5693C2.43863 12.9541 1.55394 12.0694 0.938852 11.004C0.323768 9.93859 -3.12496e-05 8.73005 2.26202e-09 7.49984L0.00350422 7.27278C0.0427527 6.06245 0.394949 4.88295 1.02576 3.84926C1.65657 2.81557 2.54446 1.96297 3.60288 1.37458C4.66129 0.786188 5.85411 0.48209 7.06504 0.491931C8.27597 0.501771 9.46369 0.825213 10.5124 1.43073ZM7.00827 3.29491C6.8224 3.29491 6.64414 3.36875 6.51271 3.50018C6.38128 3.63161 6.30744 3.80986 6.30744 3.99573V7.49984C6.30744 7.68571 6.38128 7.86397 6.51271 7.9954C6.64414 8.12683 6.8224 8.20066 7.00827 8.20066H9.46116C9.64704 8.20066 9.82529 8.12683 9.95673 7.9954C10.0882 7.86397 10.162 7.68571 10.162 7.49984C10.162 7.31397 10.0882 7.13572 9.95673 7.00429C9.82529 6.87286 9.64704 6.79902 9.46116 6.79902H7.7091V3.99573C7.70907 3.82408 7.64605 3.6584 7.53199 3.53013C7.41792 3.40185 7.26074 3.3199 7.09027 3.29982L7.00827 3.29491Z" fill="#967745"/>
</svg>
