<svg width="19" height="14" viewBox="0 0 19 14" fill="none" xmlns="http://www.w3.org/2000/svg">
<path d="M18 2V12C18 12.2652 17.9005 12.5196 17.7234 12.7071C17.5463 12.8946 17.306 13 17.0556 13H1.94444C1.69396 13 1.45374 12.8946 1.27662 12.7071C1.0995 12.5196 1 12.2652 1 12V2M18 2C18 1.73478 17.9005 1.48043 17.7234 1.29289C17.5463 1.10536 17.306 1 17.0556 1H1.94444C1.69396 1 1.45374 1.10536 1.27662 1.29289C1.0995 1.48043 1 1.73478 1 2M18 2L10.7089 8.433C10.3695 8.73233 9.94172 8.89625 9.5 8.89625C9.05828 8.89625 8.63052 8.73233 8.29111 8.433L1 2" stroke="#967745" stroke-width="1.33333" stroke-linecap="round" stroke-linejoin="round"/>
</svg>
