<svg width="18" height="17" viewBox="0 0 18 17" fill="none" xmlns="http://www.w3.org/2000/svg">
<path d="M4.21237 2.67598C4.22147 3.14736 4.05334 3.60284 3.74497 3.94221C3.4366 4.28159 3.01326 4.47705 2.56806 4.48562C2.12287 4.49418 1.6923 4.31514 1.37107 3.98787C1.04984 3.66061 0.864271 3.21194 0.855177 2.74055C0.846084 2.26917 1.01421 1.8137 1.32258 1.47432C1.63095 1.13495 2.0543 0.939483 2.49949 0.93092C2.94468 0.922357 3.37525 1.1014 3.69648 1.42866C4.01771 1.75593 4.20328 2.2046 4.21237 2.67598ZM4.32385 5.76754L0.96669 5.83389L1.18658 16.96L4.54374 16.8936L4.32385 5.76754ZM9.62817 5.66271L6.28779 5.72873L6.50768 16.8548L9.81449 16.7895L9.6991 10.9509C9.63482 7.69842 13.6323 7.31715 13.7025 10.8718L13.8179 16.7104L17.1331 16.6448L16.9938 9.59771C16.8855 4.11464 10.9641 4.43614 9.6241 7.15633L9.62817 5.66271Z" fill="white"/>
</svg>
