<svg width="15" height="15" viewBox="0 0 15 15" fill="none" xmlns="http://www.w3.org/2000/svg">
<path d="M4.10192 10.8644C6.44026 13.1986 9.2881 15 11.6099 15C12.6537 15 13.5678 14.6364 14.3041 13.8286C14.7328 13.3519 15 12.7947 15 12.2457C15 11.8417 14.846 11.454 14.458 11.1793L11.982 9.41825C11.6019 9.15977 11.2864 9.03054 10.9951 9.03054C10.623 9.03054 10.2992 9.24076 9.92705 9.60401L9.35265 10.1696C9.31247 10.2102 9.26465 10.2426 9.21193 10.2647C9.15921 10.2869 9.10263 10.2985 9.04543 10.2988C8.91598 10.2988 8.80241 10.2506 8.7137 10.2099C8.22007 9.94348 7.36261 9.20837 6.56142 8.41674C5.76851 7.6251 5.03222 6.76902 4.77332 6.26827C4.71756 6.16944 4.68709 6.0584 4.68461 5.945C4.68461 5.84023 4.71671 5.73477 4.80577 5.64619L5.37189 5.05686C5.73641 4.685 5.94663 4.36173 5.94663 3.99021C5.94663 3.69968 5.81719 3.38468 5.55035 3.00489L3.81058 0.557279C3.52752 0.169562 3.13124 0 2.69423 0C2.16022 0 1.60204 0.24228 1.13292 0.70306C0.347954 1.45437 0 2.38282 0 3.40846C0 5.72684 1.77187 8.53805 4.10192 10.8644Z" fill="#967745"/>
</svg>
